<svg id="visual" viewBox="0 0 960 540" width="960" height="540" xmlns="http://www.w3.org/2000/svg" xmlns:xlink="http://www.w3.org/1999/xlink" version="1.1"><rect width="960" height="540" fill="#f7f7f7"></rect><g><g transform="translate(50 323)"><path d="M72.3 -24.8C82.2 7 70.9 44.5 45.2 63.5C19.5 82.5 -20.6 83 -44.7 64.7C-68.9 46.5 -77 9.4 -66.9 -22.7C-56.8 -54.8 -28.4 -81.9 1.4 -82.4C31.2 -82.8 62.4 -56.6 72.3 -24.8Z" stroke="#ac4899" fill="none" stroke-width="20"></path></g><g transform="translate(947 418)"><path d="M49.3 -17.1C55.6 3.4 46.8 27.8 30.3 39.2C13.7 50.7 -10.4 49.1 -26.3 37.3C-42.2 25.5 -49.8 3.4 -44 -16.4C-38.3 -36.2 -19.1 -53.7 1.2 -54.1C21.5 -54.5 43 -37.7 49.3 -17.1Z" stroke="#ac4899" fill="none" stroke-width="20"></path></g><g transform="translate(360 524)"><path d="M73.7 -23.4C83.7 6.7 71.7 44.5 45.8 63.4C19.9 82.3 -19.9 82.3 -42.7 64.4C-65.4 46.6 -71 10.8 -61 -19.3C-51.1 -49.5 -25.5 -74 3.2 -75C31.9 -76.1 63.8 -53.6 73.7 -23.4Z" stroke="#ac4899" fill="none" stroke-width="20"></path></g><g transform="translate(230 156)"><path d="M52.6 -14.9C61 8.8 55.8 39.2 37.1 53.4C18.3 67.6 -13.9 65.5 -34.8 49.9C-55.7 34.2 -65.3 4.9 -57.6 -17.8C-49.9 -40.6 -24.9 -56.8 -1.4 -56.3C22.1 -55.9 44.2 -38.7 52.6 -14.9Z" stroke="#ac4899" fill="none" stroke-width="20"></path></g><g transform="translate(779 4)"><path d="M53 -15.9C60.4 5.4 52.3 33.1 34.2 46.1C16.1 59 -12.1 57.2 -29.7 43.7C-47.4 30.2 -54.6 5.1 -47.9 -15.4C-41.2 -35.8 -20.6 -51.5 1.1 -51.8C22.8 -52.2 45.7 -37.2 53 -15.9Z" stroke="#ac4899" fill="none" stroke-width="20"></path></g><g transform="translate(562 110)"><path d="M52.5 -17.4C60.2 6.8 53.4 35.4 34.4 49.8C15.5 64.1 -15.6 64.2 -36.7 49.2C-57.9 34.1 -69 4 -61.3 -20.3C-53.5 -44.5 -26.7 -63 -2.2 -62.3C22.4 -61.6 44.7 -41.7 52.5 -17.4Z" stroke="#ac4899" fill="none" stroke-width="20"></path></g><g transform="translate(3 23)"><path d="M53.4 -16.8C60.7 5 52.1 32.5 32.5 47.4C12.9 62.3 -17.8 64.5 -38.1 50.3C-58.5 36 -68.4 5.3 -60.3 -17.7C-52.2 -40.6 -26.1 -55.8 -1.5 -55.3C23.1 -54.8 46.2 -38.7 53.4 -16.8Z" stroke="#ac4899" fill="none" stroke-width="20"></path></g></g></svg>