<svg id="visual" viewBox="0 0 960 540" width="960" height="540" xmlns="http://www.w3.org/2000/svg" xmlns:xlink="http://www.w3.org/1999/xlink" version="1.1"><rect x="0" y="0" width="960" height="540" fill="#e879f9"></rect><path d="M0 207L160 249L320 242L480 232L640 264L800 218L960 298L960 541L800 541L640 541L480 541L320 541L160 541L0 541Z" fill="#a855f7"></path><path d="M0 277L160 308L320 290L480 285L640 333L800 319L960 261L960 541L800 541L640 541L480 541L320 541L160 541L0 541Z" fill="#b75bf7"></path><path d="M0 358L160 310L320 353L480 309L640 341L800 376L960 373L960 541L800 541L640 541L480 541L320 541L160 541L0 541Z" fill="#c562f8"></path><path d="M0 413L160 386L320 379L480 415L640 388L800 365L960 417L960 541L800 541L640 541L480 541L320 541L160 541L0 541Z" fill="#d16af8"></path><path d="M0 414L160 458L320 402L480 432L640 431L800 406L960 454L960 541L800 541L640 541L480 541L320 541L160 541L0 541Z" fill="#dd71f8"></path><path d="M0 480L160 478L320 469L480 486L640 468L800 469L960 463L960 541L800 541L640 541L480 541L320 541L160 541L0 541Z" fill="#e879f9"></path></svg>