<svg xmlns="http://www.w3.org/2000/svg" xmlns:xlink="http://www.w3.org/1999/xlink" viewBox="0 0 730.96 148.34"><defs><style>.cls-1{fill:url(#linear-gradient);}.cls-2{fill:url(#linear-gradient-2);}.cls-3{fill:url(#linear-gradient-3);}.cls-4{fill:url(#linear-gradient-4);}.cls-5{fill:url(#linear-gradient-5);}.cls-6{fill:url(#linear-gradient-6);}.cls-7{fill:url(#linear-gradient-7);}.cls-8{fill:url(#linear-gradient-8);}.cls-9{fill:url(#linear-gradient-9);}.cls-10{fill:url(#linear-gradient-10);}.cls-11{font-size:17.75px;font-family:ArialMT, Arial;letter-spacing:0.12em;}.cls-12{letter-spacing:0.1em;}.cls-13{letter-spacing:0.12em;}.cls-14{fill:url(#linear-gradient-11);}.cls-15{fill:url(#linear-gradient-12);}.cls-16{fill:url(#linear-gradient-13);}.cls-17{fill:url(#linear-gradient-16);}.cls-18{fill:none;stroke-miterlimit:10;stroke-width:2.29px;stroke:url(#linear-gradient-18);}</style><linearGradient id="linear-gradient" x1="216.53" y1="80.21" x2="221.87" y2="29.33" gradientUnits="userSpaceOnUse"><stop offset="0" stop-color="#6c3a96"/><stop offset="0.09" stop-color="#7d4098"/><stop offset="0.28" stop-color="#a94f9d"/><stop offset="0.53" stop-color="#f067a6"/><stop offset="0.64" stop-color="#d060a4"/><stop offset="0.8" stop-color="#a757a2"/><stop offset="0.92" stop-color="#8d52a1"/><stop offset="1" stop-color="#8450a0"/></linearGradient><linearGradient id="linear-gradient-2" x1="268.37" y1="79.97" x2="273.85" y2="27.82" xlink:href="#linear-gradient"/><linearGradient id="linear-gradient-3" x1="325.47" y1="80" x2="330.81" y2="29.25" xlink:href="#linear-gradient"/><linearGradient id="linear-gradient-4" x1="378.95" y1="80" x2="384.29" y2="29.25" xlink:href="#linear-gradient"/><linearGradient id="linear-gradient-5" x1="433.52" y1="80.08" x2="438.86" y2="29.32" xlink:href="#linear-gradient"/><linearGradient id="linear-gradient-6" x1="491.46" y1="81.56" x2="496.89" y2="29.9" xlink:href="#linear-gradient"/><linearGradient id="linear-gradient-7" x1="566.11" y1="80" x2="571.44" y2="29.25" xlink:href="#linear-gradient"/><linearGradient id="linear-gradient-8" x1="620.68" y1="80.08" x2="626.01" y2="29.32" xlink:href="#linear-gradient"/><linearGradient id="linear-gradient-9" x1="662.62" y1="79.84" x2="667.9" y2="29.58" xlink:href="#linear-gradient"/><linearGradient id="linear-gradient-10" x1="704.61" y1="81.49" x2="710.24" y2="27.92" xlink:href="#linear-gradient"/><linearGradient id="linear-gradient-11" x1="50.98" y1="79.65" x2="51.03" y2="79.63" gradientUnits="userSpaceOnUse"><stop offset="0" stop-color="#9a53a0"/><stop offset="0.49" stop-color="#f067a6"/><stop offset="1" stop-color="#8450a0"/></linearGradient><linearGradient id="linear-gradient-12" x1="54.86" y1="71.99" x2="118.38" y2="41.01" xlink:href="#linear-gradient-11"/><linearGradient id="linear-gradient-13" x1="32.84" y1="103.59" x2="96.72" y2="72.43" xlink:href="#linear-gradient-11"/><linearGradient id="linear-gradient-16" x1="51.03" y1="94.51" x2="51.11" y2="94.47" xlink:href="#linear-gradient-11"/><linearGradient id="linear-gradient-18" x1="7.49" y1="106.69" x2="140.85" y2="41.65" xlink:href="#linear-gradient-11"/></defs><g id="Layer_2" data-name="Layer 2"><g id="Layer_1-2" data-name="Layer 1"><path class="cls-1" d="M196.08,63l14.47-.9a11,11,0,0,0,1.91,5.37,8.06,8.06,0,0,0,6.71,3,7.4,7.4,0,0,0,5-1.53A4.57,4.57,0,0,0,226,65.42,4.53,4.53,0,0,0,224.28,62q-1.68-1.52-7.79-2.85-10-2.25-14.27-6a12,12,0,0,1-4.3-9.5,12.9,12.9,0,0,1,2.2-7.16,14.61,14.61,0,0,1,6.62-5.31q4.41-1.94,12.1-1.93,9.43,0,14.38,3.51t5.9,11.16l-14.34.84a7.66,7.66,0,0,0-2.4-4.83,7.68,7.68,0,0,0-5-1.51,6.12,6.12,0,0,0-4,1.12A3.46,3.46,0,0,0,212,42.29a2.74,2.74,0,0,0,1.11,2.11c.71.65,2.42,1.25,5.1,1.81q10,2.16,14.29,4.35A15.07,15.07,0,0,1,238.76,56a13.82,13.82,0,0,1,2,7.28A15.64,15.64,0,0,1,238.11,72a16.48,16.48,0,0,1-7.32,6.06,29.66,29.66,0,0,1-11.85,2.06q-12.56,0-17.39-4.83A19.05,19.05,0,0,1,196.08,63Z"/><path class="cls-2" d="M280.41,30.1h15.17V59.42a24.65,24.65,0,0,1-1.36,8.24A17.86,17.86,0,0,1,290,74.43a16.94,16.94,0,0,1-6.1,4.08,30.55,30.55,0,0,1-10.64,1.64,66,66,0,0,1-7.84-.5,20.56,20.56,0,0,1-7.1-2,17.8,17.8,0,0,1-5.22-4.24,15.76,15.76,0,0,1-3.24-5.67,29.35,29.35,0,0,1-1.41-8.32V30.1h15.18v30a8.57,8.57,0,0,0,2.23,6.29,9.61,9.61,0,0,0,12.35,0,8.54,8.54,0,0,0,2.24-6.32Z"/><path class="cls-3" d="M338.42,59.17l13.32,4a24.44,24.44,0,0,1-4.23,9.37,18.42,18.42,0,0,1-7.16,5.67,26.79,26.79,0,0,1-10.9,1.91c-5.35,0-9.71-.77-13.11-2.33a20.75,20.75,0,0,1-8.77-8.2q-3.7-5.87-3.7-15,0-12.21,6.5-18.77t18.38-6.56q9.3,0,14.62,3.76t7.9,11.55l-13.42,3a11.57,11.57,0,0,0-1.48-3.29,8.73,8.73,0,0,0-3.12-2.69A9.6,9.6,0,0,0,321.2,44.8q-2.08,3.09-2.09,9.69,0,8.17,2.49,11.21a8.49,8.49,0,0,0,7,3q4.37,0,6.6-2.45A15.12,15.12,0,0,0,338.42,59.17Z"/><path class="cls-4" d="M391.9,59.17l13.32,4A24.44,24.44,0,0,1,401,72.57a18.42,18.42,0,0,1-7.16,5.67,26.79,26.79,0,0,1-10.9,1.91q-8,0-13.11-2.33a20.82,20.82,0,0,1-8.78-8.2q-3.69-5.87-3.69-15,0-12.21,6.5-18.77t18.38-6.56q9.3,0,14.62,3.76t7.9,11.55l-13.43,3a11.6,11.6,0,0,0-1.47-3.29,8.73,8.73,0,0,0-3.12-2.69,9.61,9.61,0,0,0-12.06,3.22c-1.38,2.06-2.08,5.29-2.08,9.69q0,8.17,2.49,11.21a8.49,8.49,0,0,0,7,3q4.37,0,6.6-2.45A15.32,15.32,0,0,0,391.9,59.17Z"/><path class="cls-5" d="M410.69,54.74q0-12,6.72-18.77t18.7-6.71q12.28,0,18.93,6.6t6.65,18.48q0,8.63-2.91,14.15a20.67,20.67,0,0,1-8.39,8.59q-5.49,3.08-13.68,3.07T422.93,77.5a20.7,20.7,0,0,1-8.84-8.39Q410.69,63.37,410.69,54.74Zm15.21.07q0,7.45,2.77,10.71a10.48,10.48,0,0,0,15.12.06q2.7-3.18,2.69-11.44,0-7-2.8-10.16a9.59,9.59,0,0,0-7.61-3.2A9.24,9.24,0,0,0,428.69,44Q425.9,47.29,425.9,54.81Z"/><path class="cls-6" d="M470.08,79.31V30.1h25.35a36.6,36.6,0,0,1,10.77,1.21,11.42,11.42,0,0,1,6,4.48,13.6,13.6,0,0,1,2.29,8A13.19,13.19,0,0,1,508,55.65a18.37,18.37,0,0,1-5.35,1.94,15,15,0,0,1,4,1.82A15.15,15.15,0,0,1,509,62a19.9,19.9,0,0,1,2.13,3l7.36,14.26H501.31l-8.13-15a11.44,11.44,0,0,0-2.76-3.79,6.35,6.35,0,0,0-3.72-1.14h-1.34v20ZM485.36,50h6.41a22.81,22.81,0,0,0,4-.67,4,4,0,0,0,2.46-1.55,5,5,0,0,0-.55-6.51Q496.2,40,492,40h-6.68Z"/><path class="cls-7" d="M579.05,59.17l13.33,4a24.74,24.74,0,0,1-4.23,9.37A18.45,18.45,0,0,1,581,78.24a26.71,26.71,0,0,1-10.89,1.91q-8,0-13.11-2.33a20.77,20.77,0,0,1-8.78-8.2q-3.69-5.87-3.69-15,0-12.21,6.49-18.77t18.38-6.56q9.3,0,14.62,3.76t7.91,11.55l-13.43,3A11.3,11.3,0,0,0,577,44.27a8.73,8.73,0,0,0-3.12-2.69,9.6,9.6,0,0,0-12,3.22q-2.08,3.09-2.08,9.69,0,8.17,2.48,11.21a8.52,8.52,0,0,0,7,3q4.35,0,6.59-2.45A15.12,15.12,0,0,0,579.05,59.17Z"/><path class="cls-8" d="M597.85,54.74q0-12,6.71-18.77t18.7-6.71q12.29,0,18.94,6.6t6.64,18.48q0,8.63-2.9,14.15a20.73,20.73,0,0,1-8.39,8.59q-5.49,3.08-13.68,3.07T610.09,77.5a20.73,20.73,0,0,1-8.85-8.39Q597.85,63.37,597.85,54.74Zm15.21.07q0,7.45,2.77,10.71a10.48,10.48,0,0,0,15.12.06q2.68-3.18,2.69-11.44,0-7-2.81-10.16a9.56,9.56,0,0,0-7.6-3.2A9.24,9.24,0,0,0,615.84,44Q613.07,47.29,613.06,54.81Z"/><path class="cls-9" d="M657.64,30.1h15.24V79.31H657.64Z"/><path class="cls-10" d="M683.89,30.1h14.2l18.53,27.23V30.1H731V79.31H716.62l-18.43-27v27h-14.3Z"/><text class="cls-11" transform="translate(240.15 113.32)">ASSIS<tspan class="cls-12" x="63.04" y="0">T</tspan><tspan class="cls-13" x="75.71" y="0" xml:space="preserve"> &amp; SUPPO</tspan><tspan class="cls-12" x="176.77" y="0">RT </tspan><tspan class="cls-13" x="210.85" y="0">THROUGH BLOCKCHAIN</tspan></text><polygon class="cls-14" points="51.02 79.6 51.02 79.67 50.98 79.64 51.02 79.6"/><path class="cls-15" d="M123.25,64.43l-.15.1a37.74,37.74,0,0,0-4-12.89,40.43,40.43,0,0,0-5.06-7.55l-3.15-1.88-5.06-3.09-7.09-4.31L97.46,34,86.59,27.41,76.07,21a3.12,3.12,0,0,0-3.23,0L62.45,27.51,42,40.3a2.52,2.52,0,0,0,0,4.38l7,4.22a3.12,3.12,0,0,0,3.23,0L62.6,42.41,73,35.92a3.1,3.1,0,0,1,3.23,0l10.56,6.41,8.19,5a5.11,5.11,0,0,1,2.54,4.31v7C97.53,60.75,95,62,93,60.85L87,57.17,76.41,50.76a3.12,3.12,0,0,0-3.24,0l-6.81,4.28a2.52,2.52,0,0,0,0,4.38L75,64.64,87.12,72,99.3,79.4l10.52,6.4a3.12,3.12,0,0,0,3.24,0l10.38-6.49L131.89,74a2.53,2.53,0,0,0,0-4.39Zm-.78.82-.23-.17.23-.14Z"/><path class="cls-16" d="M28.15,80.08l.15-.1a38.62,38.62,0,0,0,2.13,8.61,40.81,40.81,0,0,0,6.9,11.83l3.15,1.89,5.06,3.08,7.09,4.31,1.31.79,10.87,6.61,10.71,6.49a2.77,2.77,0,0,0,2.87,0L89,117l20.84-13a2.24,2.24,0,0,0,0-3.9l-7.56-4.56a2.77,2.77,0,0,0-2.87,0L88.8,102.1l-10.56,6.6a2.76,2.76,0,0,1-2.88,0L64.62,102.2l-8.34-5.06a4.81,4.81,0,0,1-2.39-4.06V85.32a2.58,2.58,0,0,1,4-2l6.57,4,10.73,6.52a2.78,2.78,0,0,0,2.88,0l7.39-4.63a2.25,2.25,0,0,0,0-3.9l-9-5.44L64.29,72.48,52.1,65.12,41.4,58.6a2.78,2.78,0,0,0-2.88,0L28,65.22l-8.84,5.5a2.24,2.24,0,0,0,0,3.9Zm.78-.82.23.17-.23.14Z"/><polygon class="cls-14" points="51.02 79.6 51.02 79.67 50.98 79.64 51.02 79.6"/><polygon class="cls-14" points="51.02 79.6 51.02 79.67 50.98 79.64 51.02 79.6"/><polygon class="cls-17" points="51.13 94.5 51.05 94.57 51.05 94.43 51.13 94.5"/><polygon class="cls-17" points="51.13 94.5 51.05 94.57 51.05 94.43 51.13 94.5"/><circle class="cls-18" cx="74.17" cy="74.17" r="73.03"/></g></g></svg>