<svg xmlns="http://www.w3.org/2000/svg" xmlns:xlink="http://www.w3.org/1999/xlink" viewBox="0 0 192 192"><defs><style>.cls-1{fill:url(#linear-gradient);}.cls-2{fill:url(#linear-gradient-2);}.cls-3{fill:url(#linear-gradient-3);}.cls-4{fill:url(#linear-gradient-6);}.cls-5,.cls-6{fill:none;}.cls-5{stroke-miterlimit:10;stroke-width:2.86px;stroke:url(#linear-gradient-8);}</style><linearGradient id="linear-gradient" x1="66.82" y1="103.33" x2="66.88" y2="103.3" gradientUnits="userSpaceOnUse"><stop offset="0" stop-color="#9a53a0"/><stop offset="0.49" stop-color="#f067a6"/><stop offset="1" stop-color="#8450a0"/></linearGradient><linearGradient id="linear-gradient-2" x1="71.65" y1="93.78" x2="150.81" y2="55.18" xlink:href="#linear-gradient"/><linearGradient id="linear-gradient-3" x1="44.21" y1="133.16" x2="123.81" y2="94.33" xlink:href="#linear-gradient"/><linearGradient id="linear-gradient-6" x1="66.87" y1="121.84" x2="66.98" y2="121.79" xlink:href="#linear-gradient"/><linearGradient id="linear-gradient-8" x1="12.62" y1="137.03" x2="178.8" y2="55.97" xlink:href="#linear-gradient"/></defs><g id="Layer_2" data-name="Layer 2"><g id="Layer_1-2" data-name="Layer 1"><polygon class="cls-1" points="66.86 103.27 66.86 103.35 66.81 103.31 66.86 103.27"/><path class="cls-2" d="M156.88,84.36l-.19.13a47.53,47.53,0,0,0-4.95-16.07A50.1,50.1,0,0,0,145.43,59l-3.92-2.34-6.31-3.84-8.83-5.38-1.63-1-13.55-8.24L98.07,30.28a3.89,3.89,0,0,0-4,0L81.11,38.36,55.63,54.29a3.14,3.14,0,0,0,0,5.46L64.37,65a3.89,3.89,0,0,0,4,0l12.9-8.06,12.95-8.09a3.87,3.87,0,0,1,4,0l13.15,8L121.63,63a6.32,6.32,0,0,1,3.16,5.38l0,8.77c0,2.63-3.19,4.21-5.59,2.76l-7.56-4.59-13.16-8a3.87,3.87,0,0,0-4,0L86,72.68a3.14,3.14,0,0,0,0,5.46l10.69,6.48,15.13,9.21L127,103l13.11,8a3.87,3.87,0,0,0,4,0l12.94-8.09,10.52-6.55a3.14,3.14,0,0,0,0-5.46Zm-1,1-.28-.22.28-.17Z"/><path class="cls-3" d="M38.36,103.86l.19-.13a48.65,48.65,0,0,0,2.65,10.74,51.13,51.13,0,0,0,8.61,14.74l3.92,2.35L60,135.4l8.83,5.37,1.63,1L84.05,150l13.34,8.09a3.44,3.44,0,0,0,3.57,0l13.17-8.2,26-16.23a2.79,2.79,0,0,0,0-4.86l-9.42-5.69a3.47,3.47,0,0,0-3.57,0L114,131.3l-13.17,8.23a3.44,3.44,0,0,1-3.58,0l-13.38-8.12-10.4-6.31a6,6,0,0,1-3-5.06l0-9.66c0-2.34,2.84-3.74,5-2.45l8.18,5L97,121a3.48,3.48,0,0,0,3.59,0l9.2-5.78a2.79,2.79,0,0,0,0-4.85l-11.18-6.77L83.39,94.39,68.21,85.21,54.88,77.09a3.48,3.48,0,0,0-3.59,0L38.13,85.34l-11,6.86a2.78,2.78,0,0,0,0,4.85Zm1-1,.28.21-.28.17Z"/><polygon class="cls-1" points="66.86 103.27 66.86 103.35 66.81 103.31 66.86 103.27"/><polygon class="cls-1" points="66.86 103.27 66.86 103.35 66.81 103.31 66.86 103.27"/><polygon class="cls-4" points="67 121.83 66.91 121.91 66.91 121.74 67 121.83"/><polygon class="cls-4" points="67 121.83 66.91 121.91 66.91 121.74 67 121.83"/><circle class="cls-5" cx="95.71" cy="96.5" r="91"/><rect class="cls-6" width="192" height="192"/></g></g></svg>